<svg width="887" height="905" viewBox="0 0 887 905" fill="none" xmlns="http://www.w3.org/2000/svg">
<rect width="887" height="905" fill="#1E1E1E"/>
<rect width="887" height="905" fill="white"/>
<path d="M774 386.988V340L878 431.476V473.524L774 565V518.012L848.481 452.5L774 386.988Z" fill="black"/>
<path d="M113 386.988V340L9 431.476V473.524L113 565V518.012L38.5187 452.5L113 386.988Z" fill="black"/>
<path d="M716.511 364.143C716.511 364.143 670.433 327.433 630.511 330.143C597.153 332.407 571.541 335.904 548.511 360.143C522.075 387.968 512.623 420.264 513.011 458.643C513.387 495.71 521.787 521.954 548.511 547.643C571.927 570.151 587.051 575.765 619.511 574.643C663.032 573.138 701.058 554.355 716.511 513.643C725.104 491.006 725.511 458.643 725.511 458.643H619.511" stroke="#8B5CF6" stroke-width="54"/>
<path d="M386.224 449.223C382.242 384.035 337.393 325.941 272.224 330.223C210.894 334.252 164.905 387.87 161.224 449.223C157.263 515.262 206.204 576.958 272.224 581.223C341.825 585.718 390.477 518.839 386.224 449.223Z" stroke="#3B82F6" stroke-width="57"/>
<path d="M381.625 647.223L248.724 509.493L286.041 472.223L323.358 509.493L419.631 609.264L400.628 628.243L381.625 647.223Z" fill="#3B82F6"/>
<path d="M553.428 239L551.82 244.185L421.938 663.185L421.064 666H366.572L368.18 660.815L498.062 241.815L498.936 239H553.428Z" fill="black" stroke="white" stroke-width="8"/>
</svg>
